<mxfile host="app.diagrams.net" agent="Mozilla/5.0 (Windows NT 10.0; Win64; x64) AppleWebKit/537.36 (KHTML, like Gecko) Chrome/129.0.0.0 Safari/537.36 Edg/129.0.0.0" version="24.7.17">
  <diagram name="Page-1" id="Mz3QrSAHWw8lmYDlh-Ud">
    <mxGraphModel dx="3044" dy="1202" grid="1" gridSize="10" guides="1" tooltips="1" connect="1" arrows="1" fold="1" page="1" pageScale="1" pageWidth="850" pageHeight="1100" math="0" shadow="0">
      <root>
        <mxCell id="0" />
        <mxCell id="1" parent="0" />
        <mxCell id="1e1EDNUaOZc-iBde3CkM-1" value="Department" style="rounded=1;arcSize=10;whiteSpace=wrap;html=1;align=center;" vertex="1" parent="1">
          <mxGeometry x="130" y="120" width="130" height="60" as="geometry" />
        </mxCell>
        <mxCell id="1e1EDNUaOZc-iBde3CkM-3" value=" faculty member" style="rounded=1;arcSize=10;whiteSpace=wrap;html=1;align=center;" vertex="1" parent="1">
          <mxGeometry x="620" y="470" width="130" height="60" as="geometry" />
        </mxCell>
        <mxCell id="1e1EDNUaOZc-iBde3CkM-7" value="programs" style="rounded=1;arcSize=10;whiteSpace=wrap;html=1;align=center;" vertex="1" parent="1">
          <mxGeometry x="620" y="120" width="130" height="60" as="geometry" />
        </mxCell>
        <mxCell id="1e1EDNUaOZc-iBde3CkM-8" value="Students" style="rounded=1;arcSize=10;whiteSpace=wrap;html=1;align=center;" vertex="1" parent="1">
          <mxGeometry x="-440" y="630" width="130" height="60" as="geometry" />
        </mxCell>
        <mxCell id="1e1EDNUaOZc-iBde3CkM-9" value="courses" style="rounded=1;arcSize=10;whiteSpace=wrap;html=1;align=center;" vertex="1" parent="1">
          <mxGeometry x="1180" y="300" width="130" height="60" as="geometry" />
        </mxCell>
        <mxCell id="1e1EDNUaOZc-iBde3CkM-10" value="classes" style="rounded=1;arcSize=10;whiteSpace=wrap;html=1;align=center;" vertex="1" parent="1">
          <mxGeometry x="120" y="520" width="130" height="60" as="geometry" />
        </mxCell>
        <mxCell id="1e1EDNUaOZc-iBde3CkM-11" value="Did" style="ellipse;whiteSpace=wrap;html=1;align=center;fontStyle=4;" vertex="1" parent="1">
          <mxGeometry x="220" y="30" width="100" height="40" as="geometry" />
        </mxCell>
        <mxCell id="1e1EDNUaOZc-iBde3CkM-12" value="Dname" style="ellipse;whiteSpace=wrap;html=1;align=center;" vertex="1" parent="1">
          <mxGeometry x="80" y="30" width="100" height="40" as="geometry" />
        </mxCell>
        <mxCell id="1e1EDNUaOZc-iBde3CkM-13" value="Dlocation" style="ellipse;whiteSpace=wrap;html=1;align=center;" vertex="1" parent="1">
          <mxGeometry x="325" y="70" width="100" height="40" as="geometry" />
        </mxCell>
        <mxCell id="1e1EDNUaOZc-iBde3CkM-21" value="Pname" style="ellipse;whiteSpace=wrap;html=1;align=center;" vertex="1" parent="1">
          <mxGeometry x="550" y="40" width="100" height="40" as="geometry" />
        </mxCell>
        <mxCell id="1e1EDNUaOZc-iBde3CkM-22" value="Pcode" style="ellipse;whiteSpace=wrap;html=1;align=center;" vertex="1" parent="1">
          <mxGeometry x="700" y="40" width="100" height="40" as="geometry" />
        </mxCell>
        <mxCell id="1e1EDNUaOZc-iBde3CkM-23" value="duration of each program" style="ellipse;whiteSpace=wrap;html=1;align=center;" vertex="1" parent="1">
          <mxGeometry x="550" y="220" width="100" height="40" as="geometry" />
        </mxCell>
        <mxCell id="1e1EDNUaOZc-iBde3CkM-24" value="degree" style="ellipse;whiteSpace=wrap;html=1;align=center;" vertex="1" parent="1">
          <mxGeometry x="830" y="80" width="100" height="40" as="geometry" />
        </mxCell>
        <mxCell id="1e1EDNUaOZc-iBde3CkM-25" value="Sname" style="ellipse;whiteSpace=wrap;html=1;align=center;" vertex="1" parent="1">
          <mxGeometry x="-460" y="530" width="100" height="40" as="geometry" />
        </mxCell>
        <mxCell id="1e1EDNUaOZc-iBde3CkM-28" value="Phone Number" style="ellipse;shape=doubleEllipse;margin=3;whiteSpace=wrap;html=1;align=center;" vertex="1" parent="1">
          <mxGeometry x="-380" y="740" width="100" height="40" as="geometry" />
        </mxCell>
        <mxCell id="1e1EDNUaOZc-iBde3CkM-29" value="date of enrollment" style="ellipse;whiteSpace=wrap;html=1;align=center;" vertex="1" parent="1">
          <mxGeometry x="-530" y="750" width="100" height="40" as="geometry" />
        </mxCell>
        <mxCell id="1e1EDNUaOZc-iBde3CkM-30" value="current status" style="ellipse;whiteSpace=wrap;html=1;align=center;" vertex="1" parent="1">
          <mxGeometry x="-580" y="640" width="100" height="40" as="geometry" />
        </mxCell>
        <mxCell id="1e1EDNUaOZc-iBde3CkM-33" value="Head id" style="ellipse;whiteSpace=wrap;html=1;align=center;" vertex="1" parent="1">
          <mxGeometry x="-10" y="90" width="100" height="40" as="geometry" />
        </mxCell>
        <mxCell id="1e1EDNUaOZc-iBde3CkM-34" value="FacilityID" style="ellipse;whiteSpace=wrap;html=1;align=center;fontStyle=4;" vertex="1" parent="1">
          <mxGeometry x="720" y="390" width="100" height="40" as="geometry" />
        </mxCell>
        <mxCell id="1e1EDNUaOZc-iBde3CkM-35" value="Fname" style="ellipse;whiteSpace=wrap;html=1;align=center;" vertex="1" parent="1">
          <mxGeometry x="600" y="380" width="100" height="40" as="geometry" />
        </mxCell>
        <mxCell id="1e1EDNUaOZc-iBde3CkM-36" value="date of employment" style="ellipse;whiteSpace=wrap;html=1;align=center;" vertex="1" parent="1">
          <mxGeometry x="560" y="570" width="100" height="40" as="geometry" />
        </mxCell>
        <mxCell id="1e1EDNUaOZc-iBde3CkM-37" value="Rank" style="ellipse;whiteSpace=wrap;html=1;align=center;" vertex="1" parent="1">
          <mxGeometry x="720" y="570" width="100" height="40" as="geometry" />
        </mxCell>
        <mxCell id="1e1EDNUaOZc-iBde3CkM-41" value="Ccode" style="ellipse;whiteSpace=wrap;html=1;align=center;fontStyle=4;" vertex="1" parent="1">
          <mxGeometry x="1050" y="370" width="100" height="40" as="geometry" />
        </mxCell>
        <mxCell id="1e1EDNUaOZc-iBde3CkM-42" value="course title" style="ellipse;whiteSpace=wrap;html=1;align=center;" vertex="1" parent="1">
          <mxGeometry x="1340" y="380" width="100" height="40" as="geometry" />
        </mxCell>
        <mxCell id="1e1EDNUaOZc-iBde3CkM-43" value="Description" style="ellipse;whiteSpace=wrap;html=1;align=center;" vertex="1" parent="1">
          <mxGeometry x="1140" y="210" width="100" height="40" as="geometry" />
        </mxCell>
        <mxCell id="1e1EDNUaOZc-iBde3CkM-44" value="Credits       " style="ellipse;whiteSpace=wrap;html=1;align=center;" vertex="1" parent="1">
          <mxGeometry x="1280" y="210" width="100" height="40" as="geometry" />
        </mxCell>
        <mxCell id="1e1EDNUaOZc-iBde3CkM-45" value=" class ID" style="ellipse;whiteSpace=wrap;html=1;align=center;" vertex="1" parent="1">
          <mxGeometry x="110" y="650" width="100" height="40" as="geometry" />
        </mxCell>
        <mxCell id="1e1EDNUaOZc-iBde3CkM-46" value="Schedule" style="ellipse;whiteSpace=wrap;html=1;align=center;" vertex="1" parent="1">
          <mxGeometry x="260" y="620" width="100" height="40" as="geometry" />
        </mxCell>
        <mxCell id="1e1EDNUaOZc-iBde3CkM-47" value="Room Location" style="ellipse;whiteSpace=wrap;html=1;align=center;" vertex="1" parent="1">
          <mxGeometry x="-20" y="600" width="100" height="40" as="geometry" />
        </mxCell>
        <mxCell id="1e1EDNUaOZc-iBde3CkM-48" value="has " style="shape=rhombus;perimeter=rhombusPerimeter;whiteSpace=wrap;html=1;align=center;rotation=45;" vertex="1" parent="1">
          <mxGeometry x="380" y="290" width="120" height="60" as="geometry" />
        </mxCell>
        <mxCell id="1e1EDNUaOZc-iBde3CkM-50" value="" style="endArrow=none;html=1;rounded=0;entryX=0;entryY=0.5;entryDx=0;entryDy=0;exitX=1;exitY=1;exitDx=0;exitDy=0;" edge="1" parent="1" source="1e1EDNUaOZc-iBde3CkM-1" target="1e1EDNUaOZc-iBde3CkM-48">
          <mxGeometry relative="1" as="geometry">
            <mxPoint x="265" y="180" as="sourcePoint" />
            <mxPoint x="425" y="180" as="targetPoint" />
          </mxGeometry>
        </mxCell>
        <mxCell id="1e1EDNUaOZc-iBde3CkM-51" value="1" style="resizable=0;html=1;whiteSpace=wrap;align=right;verticalAlign=bottom;" connectable="0" vertex="1" parent="1e1EDNUaOZc-iBde3CkM-50">
          <mxGeometry x="1" relative="1" as="geometry" />
        </mxCell>
        <mxCell id="1e1EDNUaOZc-iBde3CkM-52" value="" style="endArrow=none;html=1;rounded=0;entryX=0;entryY=0.5;entryDx=0;entryDy=0;" edge="1" parent="1" target="1e1EDNUaOZc-iBde3CkM-3">
          <mxGeometry relative="1" as="geometry">
            <mxPoint x="480" y="360" as="sourcePoint" />
            <mxPoint x="640" y="360" as="targetPoint" />
          </mxGeometry>
        </mxCell>
        <mxCell id="1e1EDNUaOZc-iBde3CkM-53" value="1" style="resizable=0;html=1;whiteSpace=wrap;align=right;verticalAlign=bottom;" connectable="0" vertex="1" parent="1e1EDNUaOZc-iBde3CkM-52">
          <mxGeometry x="1" relative="1" as="geometry" />
        </mxCell>
        <mxCell id="1e1EDNUaOZc-iBde3CkM-56" value="offers" style="shape=rhombus;perimeter=rhombusPerimeter;whiteSpace=wrap;html=1;align=center;" vertex="1" parent="1">
          <mxGeometry x="390" y="130" width="100" height="50" as="geometry" />
        </mxCell>
        <mxCell id="1e1EDNUaOZc-iBde3CkM-59" value="" style="endArrow=none;html=1;rounded=0;" edge="1" parent="1">
          <mxGeometry relative="1" as="geometry">
            <mxPoint x="260" y="154.23" as="sourcePoint" />
            <mxPoint x="390" y="154" as="targetPoint" />
          </mxGeometry>
        </mxCell>
        <mxCell id="1e1EDNUaOZc-iBde3CkM-60" value="1" style="resizable=0;html=1;whiteSpace=wrap;align=right;verticalAlign=bottom;" connectable="0" vertex="1" parent="1e1EDNUaOZc-iBde3CkM-59">
          <mxGeometry x="1" relative="1" as="geometry" />
        </mxCell>
        <mxCell id="1e1EDNUaOZc-iBde3CkM-62" value="" style="endArrow=none;html=1;rounded=0;" edge="1" parent="1">
          <mxGeometry relative="1" as="geometry">
            <mxPoint x="490" y="154.23" as="sourcePoint" />
            <mxPoint x="620" y="154" as="targetPoint" />
          </mxGeometry>
        </mxCell>
        <mxCell id="1e1EDNUaOZc-iBde3CkM-63" value="N" style="resizable=0;html=1;whiteSpace=wrap;align=right;verticalAlign=bottom;" connectable="0" vertex="1" parent="1e1EDNUaOZc-iBde3CkM-62">
          <mxGeometry x="1" relative="1" as="geometry" />
        </mxCell>
        <mxCell id="1e1EDNUaOZc-iBde3CkM-64" value="employs " style="shape=rhombus;perimeter=rhombusPerimeter;whiteSpace=wrap;html=1;align=center;rotation=45;" vertex="1" parent="1">
          <mxGeometry x="320" y="340" width="120" height="60" as="geometry" />
        </mxCell>
        <mxCell id="1e1EDNUaOZc-iBde3CkM-65" value="" style="endArrow=none;html=1;rounded=0;entryX=0;entryY=0.5;entryDx=0;entryDy=0;" edge="1" parent="1" target="1e1EDNUaOZc-iBde3CkM-64">
          <mxGeometry relative="1" as="geometry">
            <mxPoint x="220" y="180" as="sourcePoint" />
            <mxPoint x="380" y="180" as="targetPoint" />
          </mxGeometry>
        </mxCell>
        <mxCell id="1e1EDNUaOZc-iBde3CkM-66" value="1" style="resizable=0;html=1;whiteSpace=wrap;align=right;verticalAlign=bottom;" connectable="0" vertex="1" parent="1e1EDNUaOZc-iBde3CkM-65">
          <mxGeometry x="1" relative="1" as="geometry" />
        </mxCell>
        <mxCell id="1e1EDNUaOZc-iBde3CkM-67" value="" style="endArrow=none;html=1;rounded=0;entryX=0;entryY=0.75;entryDx=0;entryDy=0;" edge="1" parent="1" target="1e1EDNUaOZc-iBde3CkM-3">
          <mxGeometry relative="1" as="geometry">
            <mxPoint x="420" y="409.23" as="sourcePoint" />
            <mxPoint x="580" y="409.23" as="targetPoint" />
          </mxGeometry>
        </mxCell>
        <mxCell id="1e1EDNUaOZc-iBde3CkM-68" value="N" style="resizable=0;html=1;whiteSpace=wrap;align=right;verticalAlign=bottom;" connectable="0" vertex="1" parent="1e1EDNUaOZc-iBde3CkM-67">
          <mxGeometry x="1" relative="1" as="geometry" />
        </mxCell>
        <mxCell id="1e1EDNUaOZc-iBde3CkM-69" value="" style="endArrow=none;html=1;rounded=0;entryX=0;entryY=0.5;entryDx=0;entryDy=0;exitX=0.413;exitY=1.018;exitDx=0;exitDy=0;exitPerimeter=0;" edge="1" parent="1" source="1e1EDNUaOZc-iBde3CkM-1" target="1e1EDNUaOZc-iBde3CkM-71">
          <mxGeometry relative="1" as="geometry">
            <mxPoint x="130" y="180" as="sourcePoint" />
            <mxPoint x="70" y="340" as="targetPoint" />
          </mxGeometry>
        </mxCell>
        <mxCell id="1e1EDNUaOZc-iBde3CkM-70" value="1" style="resizable=0;html=1;whiteSpace=wrap;align=right;verticalAlign=bottom;" connectable="0" vertex="1" parent="1e1EDNUaOZc-iBde3CkM-69">
          <mxGeometry x="1" relative="1" as="geometry" />
        </mxCell>
        <mxCell id="1e1EDNUaOZc-iBde3CkM-71" value="offers " style="shape=rhombus;perimeter=rhombusPerimeter;whiteSpace=wrap;html=1;align=center;rotation=90;" vertex="1" parent="1">
          <mxGeometry x="110" y="310" width="120" height="60" as="geometry" />
        </mxCell>
        <mxCell id="1e1EDNUaOZc-iBde3CkM-72" value="" style="endArrow=none;html=1;rounded=0;exitX=1;exitY=0.5;exitDx=0;exitDy=0;" edge="1" parent="1" source="1e1EDNUaOZc-iBde3CkM-71" target="1e1EDNUaOZc-iBde3CkM-10">
          <mxGeometry relative="1" as="geometry">
            <mxPoint x="60" y="589.23" as="sourcePoint" />
            <mxPoint x="220" y="589.23" as="targetPoint" />
          </mxGeometry>
        </mxCell>
        <mxCell id="1e1EDNUaOZc-iBde3CkM-73" value="N" style="resizable=0;html=1;whiteSpace=wrap;align=right;verticalAlign=bottom;" connectable="0" vertex="1" parent="1e1EDNUaOZc-iBde3CkM-72">
          <mxGeometry x="1" relative="1" as="geometry" />
        </mxCell>
        <mxCell id="1e1EDNUaOZc-iBde3CkM-79" value="" style="endArrow=none;html=1;rounded=0;entryX=0.5;entryY=0;entryDx=0;entryDy=0;" edge="1" parent="1" target="1e1EDNUaOZc-iBde3CkM-81">
          <mxGeometry relative="1" as="geometry">
            <mxPoint x="130" y="149.23000000000002" as="sourcePoint" />
            <mxPoint x="-200" y="670" as="targetPoint" />
          </mxGeometry>
        </mxCell>
        <mxCell id="1e1EDNUaOZc-iBde3CkM-80" value="1" style="resizable=0;html=1;whiteSpace=wrap;align=right;verticalAlign=bottom;" connectable="0" vertex="1" parent="1e1EDNUaOZc-iBde3CkM-79">
          <mxGeometry x="1" relative="1" as="geometry" />
        </mxCell>
        <mxCell id="1e1EDNUaOZc-iBde3CkM-81" value="Advice" style="shape=rhombus;perimeter=rhombusPerimeter;whiteSpace=wrap;html=1;align=center;" vertex="1" parent="1">
          <mxGeometry x="-300" y="219.99999999999977" width="120" height="60" as="geometry" />
        </mxCell>
        <mxCell id="1e1EDNUaOZc-iBde3CkM-84" value="" style="endArrow=none;html=1;rounded=0;entryX=0.615;entryY=0;entryDx=0;entryDy=0;entryPerimeter=0;" edge="1" parent="1" target="1e1EDNUaOZc-iBde3CkM-8">
          <mxGeometry relative="1" as="geometry">
            <mxPoint x="-240" y="280" as="sourcePoint" />
            <mxPoint x="-240" y="410" as="targetPoint" />
          </mxGeometry>
        </mxCell>
        <mxCell id="1e1EDNUaOZc-iBde3CkM-85" value="N" style="resizable=0;html=1;whiteSpace=wrap;align=right;verticalAlign=bottom;" connectable="0" vertex="1" parent="1e1EDNUaOZc-iBde3CkM-84">
          <mxGeometry x="1" relative="1" as="geometry" />
        </mxCell>
        <mxCell id="1e1EDNUaOZc-iBde3CkM-87" value="includes " style="shape=rhombus;perimeter=rhombusPerimeter;whiteSpace=wrap;html=1;align=center;rotation=30;" vertex="1" parent="1">
          <mxGeometry x="930" y="180" width="120" height="60" as="geometry" />
        </mxCell>
        <mxCell id="1e1EDNUaOZc-iBde3CkM-88" value="" style="endArrow=none;html=1;rounded=0;entryX=0;entryY=0.5;entryDx=0;entryDy=0;" edge="1" parent="1" target="1e1EDNUaOZc-iBde3CkM-87">
          <mxGeometry relative="1" as="geometry">
            <mxPoint x="750" y="149.23000000000002" as="sourcePoint" />
            <mxPoint x="910" y="149.23000000000002" as="targetPoint" />
          </mxGeometry>
        </mxCell>
        <mxCell id="1e1EDNUaOZc-iBde3CkM-89" value="1" style="resizable=0;html=1;whiteSpace=wrap;align=right;verticalAlign=bottom;" connectable="0" vertex="1" parent="1e1EDNUaOZc-iBde3CkM-88">
          <mxGeometry x="1" relative="1" as="geometry" />
        </mxCell>
        <mxCell id="1e1EDNUaOZc-iBde3CkM-90" value="" style="endArrow=none;html=1;rounded=0;entryX=0;entryY=0.5;entryDx=0;entryDy=0;exitX=0.986;exitY=0.516;exitDx=0;exitDy=0;exitPerimeter=0;" edge="1" parent="1" source="1e1EDNUaOZc-iBde3CkM-87" target="1e1EDNUaOZc-iBde3CkM-9">
          <mxGeometry relative="1" as="geometry">
            <mxPoint x="1050" y="240" as="sourcePoint" />
            <mxPoint x="1210" y="240" as="targetPoint" />
          </mxGeometry>
        </mxCell>
        <mxCell id="1e1EDNUaOZc-iBde3CkM-91" value="N" style="resizable=0;html=1;whiteSpace=wrap;align=right;verticalAlign=bottom;" connectable="0" vertex="1" parent="1e1EDNUaOZc-iBde3CkM-90">
          <mxGeometry x="1" relative="1" as="geometry" />
        </mxCell>
        <mxCell id="1e1EDNUaOZc-iBde3CkM-92" value="multiple " style="shape=rhombus;perimeter=rhombusPerimeter;whiteSpace=wrap;html=1;align=center;" vertex="1" parent="1">
          <mxGeometry x="880" y="770" width="120" height="60" as="geometry" />
        </mxCell>
        <mxCell id="1e1EDNUaOZc-iBde3CkM-93" value="" style="endArrow=none;html=1;rounded=0;exitX=1;exitY=1;exitDx=0;exitDy=0;entryX=0;entryY=0.5;entryDx=0;entryDy=0;" edge="1" parent="1" source="1e1EDNUaOZc-iBde3CkM-8" target="1e1EDNUaOZc-iBde3CkM-92">
          <mxGeometry relative="1" as="geometry">
            <mxPoint x="-280" y="720" as="sourcePoint" />
            <mxPoint x="660" y="820" as="targetPoint" />
          </mxGeometry>
        </mxCell>
        <mxCell id="1e1EDNUaOZc-iBde3CkM-94" value="N" style="resizable=0;html=1;whiteSpace=wrap;align=right;verticalAlign=bottom;" connectable="0" vertex="1" parent="1e1EDNUaOZc-iBde3CkM-93">
          <mxGeometry x="1" relative="1" as="geometry" />
        </mxCell>
        <mxCell id="1e1EDNUaOZc-iBde3CkM-95" value="" style="endArrow=none;html=1;rounded=0;entryX=0.5;entryY=0;entryDx=0;entryDy=0;" edge="1" parent="1" target="1e1EDNUaOZc-iBde3CkM-92">
          <mxGeometry relative="1" as="geometry">
            <mxPoint x="750" y="180" as="sourcePoint" />
            <mxPoint x="910" y="180" as="targetPoint" />
          </mxGeometry>
        </mxCell>
        <mxCell id="1e1EDNUaOZc-iBde3CkM-96" value="1" style="resizable=0;html=1;whiteSpace=wrap;align=right;verticalAlign=bottom;" connectable="0" vertex="1" parent="1e1EDNUaOZc-iBde3CkM-95">
          <mxGeometry x="1" relative="1" as="geometry" />
        </mxCell>
      </root>
    </mxGraphModel>
  </diagram>
</mxfile>
